HIERARCHY
ROOT hip
{
  OFFSET 0 0 0
  CHANNELS 6 Xposition Yposition Zposition Zrotation Yrotation Xrotation
  JOINT abdomen
  {
    OFFSET 0 20.6881 -0.73152
    CHANNELS 3 Zrotation Xrotation Yrotation
    JOINT chest
    {
      OFFSET 0 11.7043 -0.48768
      CHANNELS 3 Zrotation Xrotation Yrotation
      JOINT neck
      {
        OFFSET 0 22.1894 -2.19456
        CHANNELS 3 Zrotation Xrotation Yrotation
        JOINT head
        {
          OFFSET -0.24384 7.07133 1.2192
          CHANNELS 3 Zrotation Xrotation Yrotation
          JOINT leftEye
          {
            OFFSET 4.14528 8.04674 8.04672
            CHANNELS 3 Zrotation Xrotation Yrotation
            End Site
            {
              OFFSET 1 0 0
            }
          }
          JOINT rightEye
          {
            OFFSET -3.6576 8.04674 8.04672
            CHANNELS 3 Zrotation Xrotation Yrotation
            End Site
            {
              OFFSET 1 0 0
            }
          }
        }
      }
      JOINT rCollar
      {
        OFFSET -2.68224 19.2634 -4.8768
        CHANNELS 3 Zrotation Xrotation Yrotation
        JOINT rShldr
        {
          OFFSET -8.77824 -1.95073 1.46304
          CHANNELS 3 Zrotation Xrotation Yrotation
          JOINT rForeArm
          {
            OFFSET -28.1742 -1.7115 0.48768
            CHANNELS 3 Zrotation Xrotation Yrotation
            JOINT rHand
            {
              OFFSET -22.5879 0.773209 7.07136
              CHANNELS 3 Zrotation Xrotation Yrotation
              JOINT rThumb1
              {
                OFFSET -1.2192 -0.487915 3.41376
                CHANNELS 3 Zrotation Xrotation Yrotation
                JOINT rThumb2
                {
                  OFFSET -3.37035 -0.52449 3.41376
                  CHANNELS 3 Zrotation Xrotation Yrotation
                  End Site
                  {
                    OFFSET -1.78271 -1.18214 1.43049
                  }
                }
              }
              JOINT rIndex1
              {
                OFFSET -7.75947 0.938293 5.60832
                CHANNELS 3 Zrotation Xrotation Yrotation
                JOINT rIndex2
                {
                  OFFSET -2.54057 -0.884171 1.56538
                  CHANNELS 3 Zrotation Xrotation Yrotation
                  End Site
                  {
                    OFFSET -1.62519 -0.234802 1.16502
                  }
                }
              }
              JOINT rMid1
              {
                OFFSET -8.24714 1.18213 3.41376
                CHANNELS 3 Zrotation Xrotation Yrotation
                JOINT rMid2
                {
                  OFFSET -3.10165 -0.590103 1.0647
                  CHANNELS 3 Zrotation Xrotation Yrotation
                  End Site
                  {
                    OFFSET -2.48547 -0.328903 0.83742
                  }
                }
              }
              JOINT rRing1
              {
                OFFSET -8.82822 0.546677 1.51678
                CHANNELS 3 Zrotation Xrotation Yrotation
                JOINT rRing2
                {
                  OFFSET -2.60934 -0.819778 -0.0198488
                  CHANNELS 3 Zrotation Xrotation Yrotation
                  End Site
                  {
                    OFFSET -2.33842 -0.294052 0.168128
                  }
                }
              }
              JOINT rPinky1
              {
                OFFSET -8.27202 -0.0477905 -0.4584
                CHANNELS 3 Zrotation Xrotation Yrotation
                JOINT rPinky2
                {
                  OFFSET -1.82734 -0.647385 -0.700984
                  CHANNELS 3 Zrotation Xrotation Yrotation
                  End Site
                  {
                    OFFSET -1.69225 -0.51767 -0.607171
                  }
                }
              }
            }
          }
        }
      }
      JOINT lCollar
      {
        OFFSET 2.68224 19.2634 -4.8768
        CHANNELS 3 Zrotation Xrotation Yrotation
        JOINT lShldr
        {
          OFFSET 8.77824 -1.95073 1.46304
          CHANNELS 3 Zrotation Xrotation Yrotation
          JOINT lForeArm
          {
            OFFSET 28.1742 -1.7115 0.48768
            CHANNELS 3 Zrotation Xrotation Yrotation
            JOINT lHand
            {
              OFFSET 22.5879 0.773209 7.07136
              CHANNELS 3 Zrotation Xrotation Yrotation
              JOINT lThumb1
              {
                OFFSET 1.2192 -0.487915 3.41376
                CHANNELS 3 Zrotation Xrotation Yrotation
                JOINT lThumb2
                {
                  OFFSET 3.37035 -0.52449 3.41376
                  CHANNELS 3 Zrotation Xrotation Yrotation
                  End Site
                  {
                    OFFSET 1.78271 -1.18214 1.43049
                  }
                }
              }
              JOINT lIndex1
              {
                OFFSET 7.75947 0.938293 5.60832
                CHANNELS 3 Zrotation Xrotation Yrotation
                JOINT lIndex2
                {
                  OFFSET 2.54057 -0.884171 1.56538
                  CHANNELS 3 Zrotation Xrotation Yrotation
                  End Site
                  {
                    OFFSET 1.62519 -0.234802 1.16502
                  }
                }
              }
              JOINT lMid1
              {
                OFFSET 8.24714 1.18213 3.41376
                CHANNELS 3 Zrotation Xrotation Yrotation
                JOINT lMid2
                {
                  OFFSET 3.10165 -0.590103 1.0647
                  CHANNELS 3 Zrotation Xrotation Yrotation
                  End Site
                  {
                    OFFSET 2.48547 -0.328903 0.83742
                  }
                }
              }
              JOINT lRing1
              {
                OFFSET 8.82822 0.546677 1.51678
                CHANNELS 3 Zrotation Xrotation Yrotation
                JOINT lRing2
                {
                  OFFSET 2.60934 -0.819778 -0.0198488
                  CHANNELS 3 Zrotation Xrotation Yrotation
                  End Site
                  {
                    OFFSET 2.33842 -0.294052 0.168128
                  }
                }
              }
              JOINT lPinky1
              {
                OFFSET 8.27202 -0.0477905 -0.4584
                CHANNELS 3 Zrotation Xrotation Yrotation
                JOINT lPinky2
                {
                  OFFSET 1.82734 -0.647385 -0.700984
                  CHANNELS 3 Zrotation Xrotation Yrotation
                  End Site
                  {
                    OFFSET 1.69225 -0.51767 -0.607171
                  }
                }
              }
            }
          }
        }
      }
    }
  }
  JOINT rButtock
  {
    OFFSET -8.77824 4.35084 1.2192
    CHANNELS 3 Zrotation Xrotation Yrotation
    JOINT rThigh
    {
      OFFSET 0 -1.70687 -2.19456
      CHANNELS 3 Zrotation Xrotation Yrotation
      JOINT rShin
      {
        OFFSET 0 -36.8199 0.73152
        CHANNELS 3 Zrotation Xrotation Yrotation
        JOINT rFoot
        {
          OFFSET 0.73152 -45.1104 -5.12064
          CHANNELS 3 Zrotation Xrotation Yrotation
          End Site
          {
            OFFSET -1.1221 -3.69964 12.103
          }
        }
      }
    }
  }
  JOINT lButtock
  {
    OFFSET 8.77824 4.35084 1.2192
    CHANNELS 3 Zrotation Xrotation Yrotation
    JOINT lThigh
    {
      OFFSET 0 -1.70687 -2.19456
      CHANNELS 3 Zrotation Xrotation Yrotation
      JOINT lShin
      {
        OFFSET 0 -36.8199 0.73152
        CHANNELS 3 Zrotation Xrotation Yrotation
        JOINT lFoot
        {
          OFFSET -0.73152 -45.1104 -5.12064
          CHANNELS 3 Zrotation Xrotation Yrotation
          End Site
          {
            OFFSET 1.1221 -3.69964 12.103
          }
        }
      }
    }
  }
}
MOTION
Frames:	5
Frame Time:	0.03333
-9.785389923490584 55.13309836387634 -93.51060022599995 -16.591999053955078 -26.33860206604004 13.662489891052246 9.990660667419434 11.900911331176758 3.62355637550354 0.14575433731079102 -8.195302963256836 1.0754570960998535 -0.7404187917709351 11.034278869628906 6.492814064025879 5.584820747375488 -22.435205459594727 14.03659439086914 -0.0 0.0 -0.0 -0.0 0.0 -0.0 -0.0 0.0 -0.0 110.52801513671875 47.01723098754883 -59.00869369506836 -26.20840072631836 -45.866493225097656 95.25109100341797 -14.242005348205566 -68.42684936523438 -20.82219886779785 -0.0 0.0 -0.0 -0.0 0.0 -0.0 -0.0 0.0 -0.0 7.73087739944458 5.47489595413208 0.41732463240623474 -0.0 0.0 -0.0 2.9054994583129883 0.9650753736495972 0.10300876200199127 -0.0 0.0 -0.0 10.278595924377441 0.7317469120025635 0.026285577565431595 -0.0 0.0 -0.0 2.221662759780884 -0.7335850596427917 -0.20831839740276337 -0.0 0.0 -0.0 -67.92640686035156 -20.745498657226562 -83.67860412597656 7.238646030426025 -2.6228325366973877 -12.715107917785645 7.195483684539795 58.038394927978516 -12.982351303100586 -0.0 0.0 -0.0 -0.0 0.0 -0.0 -0.0 0.0 -0.0 -7.73087739944458 5.47489595413208 -0.41732463240623474 -0.0 0.0 -0.0 -2.9054994583129883 0.9650753736495972 -0.10300876200199127 -0.0 0.0 -0.0 -10.278595924377441 0.7317469120025635 -0.026285577565431595 -0.0 0.0 -0.0 -2.221662759780884 -0.7335850596427917 0.20831839740276337 -0.0 0.0 -0.0 -6.733176231384277 6.832424640655518 -6.3623223304748535 0.021269429475069046 34.25370407104492 2.289466142654419 -8.003525733947754 -13.967784881591797 -33.8777961730957 -0.0 0.0 -0.0 75.09100341796875 -59.774505615234375 64.4832992553711 3.111618995666504 74.37639617919922 -3.0372612476348877 -0.5542041659355164 -1.5764998197555542 -3.8383796215057373
-9.97098992811516 55.28259873390198 -93.77660022582859 -17.313804626464844 -25.93620491027832 13.708395004272461 10.979619979858398 11.865094184875488 3.573193311691284 0.1125282421708107 -8.235673904418945 1.0858111381530762 -0.7502396702766418 10.919897079467773 6.4072957038879395 5.650486946105957 -22.537593841552734 13.895096778869629 -0.0 0.0 -0.0 -0.0 0.0 -0.0 -0.0 0.0 -0.0 110.24799346923828 46.8991813659668 -58.79600524902344 -26.41350746154785 -45.423587799072266 94.33878326416016 -15.073941230773926 -69.16191101074219 -21.699331283569336 -0.0 0.0 -0.0 -0.0 0.0 -0.0 -0.0 0.0 -0.0 7.73087739944458 5.47489595413208 0.41732463240623474 -0.0 0.0 -0.0 2.9054994583129883 0.9650753736495972 0.10300876200199127 -0.0 0.0 -0.0 10.278595924377441 0.7317469120025635 0.026285577565431595 -0.0 0.0 -0.0 2.221662759780884 -0.7335850596427917 -0.20831839740276337 -0.0 0.0 -0.0 -68.84640502929688 -20.286502838134766 -83.5829086303711 7.239594459533691 -2.6234757900238037 -12.716592788696289 8.440637588500977 60.538307189941406 -14.412028312683105 -0.0 0.0 -0.0 -0.0 0.0 -0.0 -0.0 0.0 -0.0 -7.73087739944458 5.47489595413208 -0.41732463240623474 -0.0 0.0 -0.0 -2.9054994583129883 0.9650753736495972 -0.10300876200199127 -0.0 0.0 -0.0 -10.278595924377441 0.7317469120025635 -0.026285577565431595 -0.0 0.0 -0.0 -2.221662759780884 -0.7335850596427917 0.20831839740276337 -0.0 0.0 -0.0 -5.648499965667725 7.247915267944336 -6.624925136566162 0.021507974714040756 33.94309616088867 2.261662483215332 -7.99550199508667 -13.983996391296387 -33.79999923706055 -0.0 0.0 -0.0 73.8682861328125 -60.12909698486328 61.98868942260742 2.826549530029297 73.27117919921875 -2.7905924320220947 -0.47908052802085876 -1.3428528308868408 -3.2669742107391357
-10.080059932079166 55.436402559280396 -94.02460022829473 -17.532194137573242 -25.780595779418945 13.903204917907715 11.185895919799805 11.438899993896484 3.7117257118225098 0.16119907796382904 -8.204187393188477 1.1242703199386597 -0.7012941837310791 10.751104354858398 6.367987155914307 5.634230613708496 -22.6853084564209 13.829793930053711 -0.0 0.0 -0.0 -0.0 0.0 -0.0 -0.0 0.0 -0.0 109.75799560546875 46.68648147583008 -58.348819732666016 -26.557586669921875 -45.106300354003906 93.67789459228516 -15.565631866455078 -69.62823486328125 -22.23944091796875 -0.0 0.0 -0.0 -0.0 0.0 -0.0 -0.0 0.0 -0.0 7.73087739944458 5.47489595413208 0.41732463240623474 -0.0 0.0 -0.0 2.9054994583129883 0.9650753736495972 0.10300876200199127 -0.0 0.0 -0.0 10.278595924377441 0.7317469120025635 0.026285577565431595 -0.0 0.0 -0.0 2.221662759780884 -0.7335850596427917 -0.20831839740276337 -0.0 0.0 -0.0 -68.97259521484375 -19.920398712158203 -83.47219848632812 7.212930202484131 -2.611799716949463 -12.668909072875977 8.075652122497559 59.79020309448242 -13.980249404907227 -0.0 0.0 -0.0 -0.0 0.0 -0.0 -0.0 0.0 -0.0 -7.73087739944458 5.47489595413208 -0.41732463240623474 -0.0 0.0 -0.0 -2.9054994583129883 0.9650753736495972 -0.10300876200199127 -0.0 0.0 -0.0 -10.278595924377441 0.7317469120025635 -0.026285577565431595 -0.0 0.0 -0.0 -2.221662759780884 -0.7335850596427917 0.20831839740276337 -0.0 0.0 -0.0 -5.164801120758057 7.123244285583496 -6.712287425994873 0.01827453263103962 33.780399322509766 2.2252461910247803 -8.012533187866211 -13.990191459655762 -33.75350570678711 -0.0 0.0 -0.0 73.23018646240234 -60.42779541015625 60.642486572265625 2.6516616344451904 72.50751495361328 -2.643298625946045 -0.46821334958076477 -0.6700838208198547 -3.190520763397217
-10.157829930540174 55.57339787483215 -94.21960022300482 -17.262800216674805 -25.805797576904297 14.034502029418945 10.725590705871582 11.031997680664062 3.848271369934082 0.33253219723701477 -8.138821601867676 1.1532539129257202 -0.6556894183158875 10.675675392150879 6.354832172393799 5.588514804840088 -23.06280517578125 13.823187828063965 -0.0 0.0 -0.0 -0.0 0.0 -0.0 -0.0 0.0 -0.0 109.3169937133789 46.56709289550781 -57.93050765991211 -26.652305603027344 -44.88469696044922 93.22769927978516 -15.46557903289795 -69.54296875 -22.132568359375 -0.0 0.0 -0.0 -0.0 0.0 -0.0 -0.0 0.0 -0.0 7.73087739944458 5.47489595413208 0.41732463240623474 -0.0 0.0 -0.0 2.9054994583129883 0.9650753736495972 0.10300876200199127 -0.0 0.0 -0.0 10.278595924377441 0.7317469120025635 0.026285577565431595 -0.0 0.0 -0.0 2.221662759780884 -0.7335850596427917 -0.20831839740276337 -0.0 0.0 -0.0 -68.33039855957031 -19.76120376586914 -83.22589874267578 7.225223064422607 -2.6184868812561035 -12.691194534301758 7.572607040405273 58.774818420410156 -13.404253959655762 -0.0 0.0 -0.0 -0.0 0.0 -0.0 -0.0 0.0 -0.0 -7.73087739944458 5.47489595413208 -0.41732463240623474 -0.0 0.0 -0.0 -2.9054994583129883 0.9650753736495972 -0.10300876200199127 -0.0 0.0 -0.0 -10.278595924377441 0.7317469120025635 -0.026285577565431595 -0.0 0.0 -0.0 -2.221662759780884 -0.7335850596427917 0.20831839740276337 -0.0 0.0 -0.0 -5.177218437194824 6.757634162902832 -6.674189567565918 0.010521622374653816 33.93109893798828 2.19671368598938 -8.154146194458008 -14.114200592041016 -33.80459976196289 -0.0 0.0 -0.0 72.39849090576172 -60.63229751586914 59.73270034790039 2.519141435623169 71.86809539794922 -2.5215117931365967 -0.4462047219276428 0.13882064819335938 -3.1077723503112793
-10.247659927699715 55.696600675582886 -94.34960022335872 -16.626394271850586 -25.964500427246094 13.97769546508789 9.59848690032959 10.644308090209961 3.982797145843506 0.6224402785301208 -8.039569854736328 1.172497034072876 -0.6209892630577087 10.693198204040527 6.368461608886719 5.514531135559082 -23.669986724853516 13.87680435180664 -0.0 0.0 -0.0 -0.0 0.0 -0.0 -0.0 0.0 -0.0 108.92298126220703 46.541561126708984 -57.53731155395508 -26.703983306884766 -44.76350021362305 92.97879791259766 -14.714397430419922 -68.91248321533203 -21.344057083129883 -0.0 0.0 -0.0 -0.0 0.0 -0.0 -0.0 0.0 -0.0 7.73087739944458 5.47489595413208 0.41732463240623474 -0.0 0.0 -0.0 2.9054994583129883 0.9650753736495972 0.10300876200199127 -0.0 0.0 -0.0 10.278595924377441 0.7317469120025635 0.026285577565431595 -0.0 0.0 -0.0 2.221662759780884 -0.7335850596427917 -0.20831839740276337 -0.0 0.0 -0.0 -66.91780090332031 -19.80340003967285 -82.8357925415039 7.276308536529541 -2.643573045730591 -12.78359317779541 7.0062174797058105 57.48589324951172 -12.737595558166504 -0.0 0.0 -0.0 -0.0 0.0 -0.0 -0.0 0.0 -0.0 -7.73087739944458 5.47489595413208 -0.41732463240623474 -0.0 0.0 -0.0 -2.9054994583129883 0.9650753736495972 -0.10300876200199127 -0.0 0.0 -0.0 -10.278595924377441 0.7317469120025635 -0.026285577565431595 -0.0 0.0 -0.0 -2.221662759780884 -0.7335850596427917 0.20831839740276337 -0.0 0.0 -0.0 -5.682852745056152 6.150704383850098 -6.511569023132324 -0.0005924163269810379 34.39520263671875 2.175757884979248 -8.421460151672363 -14.355605125427246 -33.95399856567383 -0.0 0.0 -0.0 71.38929748535156 -60.75419998168945 59.278690338134766 2.427734375 71.35295867919922 -2.4234440326690674 -0.4146328866481781 1.0834075212478638 -3.019078016281128
